<svg width="512" height="328" viewBox="0 0 512 328" fill="none" xmlns="http://www.w3.org/2000/svg">
<rect x="7" y="20" width="497" height="302" fill="#F572CE"/>
<rect x="7" y="20" width="497" height="302" fill="#FFA8D1"/>
<path d="M350.4 101.36C363.68 129.6 342.8 158.8 317.28 181.6C289.36 206.64 256 224 256 224C256 224 222.64 206.64 194.72 181.6C169.2 158.8 148.32 129.6 161.6 101.36C163.12 98.08 165.12 94.8 167.68 91.52C206.32 41.84 256 102.56 256 102.56C256 102.56 305.68 41.84 344.32 91.52C346.88 94.8 348.88 98.08 350.4 101.36Z" fill="#FFA8D1"/>
<path d="M317.28 181.6C289.36 206.64 256 224 256 224C256 224 224.96 207.84 197.68 184.16C212.64 194.08 224 200 224 200C224 200 257.36 182.64 285.28 157.6C310.8 134.8 331.68 105.6 318.4 77.3601C317.68 75.7601 316.8 74.1601 315.76 72.5601C325.36 74.1601 335.2 79.7601 344.32 91.5201C346.88 94.8001 348.88 98.0801 350.4 101.36C363.68 129.6 342.8 158.8 317.28 181.6Z" fill="#FF95C7"/>
<path d="M504 24V32L350.4 101.36C348.88 98.08 346.88 94.8 344.32 91.52C305.68 41.84 256 102.56 256 102.56C256 102.56 206.32 41.84 167.68 91.52C165.12 94.8 163.12 98.08 161.6 101.36L8 32V24C8 15.2 15.2 8 24 8H488C496.8 8 504 15.2 504 24ZM504 296V304C504 312.8 496.8 320 488 320H24C15.2 320 8 312.8 8 304V296L194.72 181.6C222.64 206.64 256 224 256 224C256 224 289.36 206.64 317.28 181.6L504 296Z" fill="#F572CE"/>
<path d="M200.83 109.759C202.957 103.482 201.061 97.1669 196.596 95.6539C192.132 94.1408 186.788 98.0027 184.661 104.279C182.534 110.556 184.429 116.871 188.894 118.384C193.359 119.897 198.703 116.035 200.83 109.759Z" fill="#FFCAC4"/>
<path d="M488 0H24C10.768 0 0 10.768 0 24V304C0 317.232 10.768 328 24 328H488C501.232 328 512 317.232 512 304V24C512 10.768 501.232 0 488 0ZM150.768 131.168C154.616 148.784 166.888 165.584 181.632 180.232L16 281.72V44.392L151.52 105.584C149.1 113.91 148.842 122.715 150.768 131.168ZM166.392 127.744C163.92 116.44 166.416 106.208 174.008 96.448C182.504 85.528 191.728 80.144 202.216 80H202.656C226.784 80 249.584 107.376 249.816 107.656C252.856 111.352 259.144 111.352 262.184 107.656C262.416 107.376 285.52 79.808 309.784 80.008C320.272 80.152 329.496 85.528 337.992 96.456C345.584 106.216 348.072 116.456 345.608 127.752C336.944 167.456 272.256 205.808 256 214.888C239.744 205.808 175.056 167.456 166.392 127.744ZM361.232 131.168C363.152 122.713 362.89 113.91 360.472 105.584L496 44.392V281.72L330.368 180.24C345.112 165.592 357.384 148.784 361.232 131.168ZM24 16H488C492.408 16 496 19.592 496 24V26.832L353.752 91.064C352.771 89.5416 351.727 88.0604 350.624 86.624C339.096 71.8 325.408 64.192 309.936 64H309.36C286.248 64 265.84 81.008 256.008 90.816C246.088 80.936 225.44 64.064 202.072 64.008C186.6 64.2 172.912 71.816 161.384 86.632C160.279 88.067 159.235 89.5484 158.256 91.072L16 26.832V24C16 19.592 19.592 16 24 16ZM488 312H24C19.592 312 16 308.408 16 304V300.48L193.88 191.496C220.728 214.472 250.2 230 252.312 231.096C253.451 231.688 254.716 231.997 256 231.997C257.284 231.997 258.549 231.688 259.688 231.096C261.8 230 291.272 214.472 318.12 191.496L496 300.48V304C496 308.408 492.408 312 488 312Z" fill="#71626C"/>
<path d="M304 168C306.122 168 308.156 167.156 309.656 165.656C309.816 165.496 313.52 161.784 318.144 156.232C319.503 154.603 320.159 152.5 319.968 150.387C319.776 148.274 318.753 146.323 317.124 144.964C315.495 143.605 313.392 142.949 311.279 143.14C309.166 143.332 307.215 144.355 305.856 145.984C301.72 150.944 298.376 154.312 298.344 154.344C297.226 155.463 296.464 156.888 296.155 158.44C295.847 159.991 296.005 161.6 296.611 163.061C297.216 164.523 298.241 165.772 299.556 166.651C300.872 167.53 302.418 168 304 168ZM307.504 111.192C310.88 109.6 317.088 108.056 320.848 115.584C321.736 117.36 321.264 120.784 319.544 124.976C319.147 125.949 318.945 126.99 318.951 128.041C318.956 129.092 319.168 130.131 319.575 131.1C319.983 132.069 320.576 132.948 321.323 133.687C322.07 134.426 322.955 135.011 323.928 135.408C324.901 135.805 325.942 136.007 326.993 136.001C328.044 135.996 329.083 135.784 330.052 135.377C331.021 134.969 331.9 134.376 332.639 133.629C333.378 132.882 333.963 131.997 334.36 131.024C337.976 122.192 338.24 114.584 335.16 108.416C326.664 91.424 309.736 92.192 300.424 96.84C298.545 97.7814 297.115 99.4274 296.445 101.419C295.775 103.411 295.92 105.587 296.848 107.472C298.768 111.424 303.544 113.064 307.504 111.192Z" fill="#71626C"/>
<path d="M350.4 101.36C363.68 129.6 342.8 158.8 317.28 181.6C289.36 206.64 256 224 256 224C256 224 222.64 206.64 194.72 181.6C169.2 158.8 148.32 129.6 161.6 101.36C163.12 98.08 165.12 94.8 167.68 91.52C206.32 41.84 256 102.56 256 102.56C256 102.56 305.68 41.84 344.32 91.52C346.88 94.8 348.88 98.08 350.4 101.36Z" fill="#F572CE"/>
<path d="M317.28 181.6C289.36 206.64 256 224 256 224C256 224 224.96 207.84 197.68 184.16C212.64 194.08 224 200 224 200C224 200 257.36 182.64 285.28 157.6C310.8 134.8 331.68 105.6 318.4 77.3601C317.68 75.7601 316.8 74.1601 315.76 72.5601C325.36 74.1601 335.2 79.7601 344.32 91.5201C346.88 94.8001 348.88 98.0801 350.4 101.36C363.68 129.6 342.8 158.8 317.28 181.6Z" fill="#F557C6"/>
<path d="M504 24V32L350.4 101.36C348.88 98.08 346.88 94.8 344.32 91.52C305.68 41.84 256 102.56 256 102.56C256 102.56 206.32 41.84 167.68 91.52C165.12 94.8 163.12 98.08 161.6 101.36L8 32V24C8 15.2 15.2 8 24 8H488C496.8 8 504 15.2 504 24ZM504 296V304C504 312.8 496.8 320 488 320H24C15.2 320 8 312.8 8 304V296L194.72 181.6C222.64 206.64 256 224 256 224C256 224 289.36 206.64 317.28 181.6L504 296Z" fill="#FFA8D1"/>
<path d="M200.83 109.759C202.957 103.482 201.061 97.1669 196.596 95.6539C192.132 94.1408 186.788 98.0027 184.661 104.279C182.534 110.556 184.429 116.871 188.894 118.384C193.359 119.897 198.703 116.035 200.83 109.759Z" fill="#FFA8D1"/>
<path d="M488 0H24C10.768 0 0 10.768 0 24V304C0 317.232 10.768 328 24 328H488C501.232 328 512 317.232 512 304V24C512 10.768 501.232 0 488 0ZM150.768 131.168C154.616 148.784 166.888 165.584 181.632 180.232L16 281.72V44.392L151.52 105.584C149.1 113.91 148.842 122.715 150.768 131.168ZM166.392 127.744C163.92 116.44 166.416 106.208 174.008 96.448C182.504 85.528 191.728 80.144 202.216 80H202.656C226.784 80 249.584 107.376 249.816 107.656C252.856 111.352 259.144 111.352 262.184 107.656C262.416 107.376 285.52 79.808 309.784 80.008C320.272 80.152 329.496 85.528 337.992 96.456C345.584 106.216 348.072 116.456 345.608 127.752C336.944 167.456 272.256 205.808 256 214.888C239.744 205.808 175.056 167.456 166.392 127.744ZM361.232 131.168C363.152 122.713 362.89 113.91 360.472 105.584L496 44.392V281.72L330.368 180.24C345.112 165.592 357.384 148.784 361.232 131.168ZM24 16H488C492.408 16 496 19.592 496 24V26.832L353.752 91.064C352.771 89.5416 351.727 88.0604 350.624 86.624C339.096 71.8 325.408 64.192 309.936 64H309.36C286.248 64 265.84 81.008 256.008 90.816C246.088 80.936 225.44 64.064 202.072 64.008C186.6 64.2 172.912 71.816 161.384 86.632C160.279 88.067 159.235 89.5484 158.256 91.072L16 26.832V24C16 19.592 19.592 16 24 16ZM488 312H24C19.592 312 16 308.408 16 304V300.48L193.88 191.496C220.728 214.472 250.2 230 252.312 231.096C253.451 231.688 254.716 231.997 256 231.997C257.284 231.997 258.549 231.688 259.688 231.096C261.8 230 291.272 214.472 318.12 191.496L496 300.48V304C496 308.408 492.408 312 488 312Z" fill="#A83593"/>
<path d="M304 168C306.122 168 308.156 167.156 309.656 165.656C309.816 165.496 313.52 161.784 318.144 156.232C319.503 154.603 320.159 152.5 319.968 150.387C319.776 148.274 318.753 146.323 317.124 144.964C315.495 143.605 313.392 142.949 311.279 143.14C309.166 143.332 307.215 144.355 305.856 145.984C301.72 150.944 298.376 154.312 298.344 154.344C297.226 155.463 296.464 156.888 296.155 158.44C295.847 159.991 296.005 161.6 296.611 163.061C297.216 164.523 298.241 165.772 299.556 166.651C300.872 167.53 302.418 168 304 168ZM307.504 111.192C310.88 109.6 317.088 108.056 320.848 115.584C321.736 117.36 321.264 120.784 319.544 124.976C319.147 125.949 318.945 126.99 318.951 128.041C318.956 129.092 319.168 130.131 319.575 131.1C319.983 132.069 320.576 132.948 321.323 133.687C322.07 134.426 322.955 135.011 323.928 135.408C324.901 135.805 325.942 136.007 326.993 136.001C328.044 135.996 329.083 135.784 330.052 135.377C331.021 134.969 331.9 134.376 332.639 133.629C333.378 132.882 333.963 131.997 334.36 131.024C337.976 122.192 338.24 114.584 335.16 108.416C326.664 91.424 309.736 92.192 300.424 96.84C298.545 97.7814 297.115 99.4274 296.445 101.419C295.775 103.411 295.92 105.587 296.848 107.472C298.768 111.424 303.544 113.064 307.504 111.192Z" fill="#A83593"/>
</svg>
